<svg width="24" height="24" viewBox="0 0 24 24" fill="none" xmlns="http://www.w3.org/2000/svg">
<path d="M7.0199 10.348C7.42047 10.7486 7.887 11.0632 8.40635 11.2829C8.9448 11.5107 9.51652 11.626 10.1048 11.626C10.6931 11.626 11.2648 11.5107 11.8032 11.2829C12.3226 11.0632 12.7892 10.7485 13.1898 10.348C13.5903 9.94738 13.905 9.48083 14.1247 8.96145C14.3525 8.423 14.4678 7.85128 14.4678 7.263C14.4678 6.67472 14.3525 6.103 14.1247 5.56455C13.905 5.04522 13.5904 4.57797 13.1897 4.17799C12.7891 3.77744 12.3226 3.46279 11.8032 3.24311C11.2648 3.01526 10.6931 2.9 10.1048 2.9C9.51651 2.9 8.94478 3.01526 8.40634 3.24312C7.88696 3.4628 7.42042 3.77747 7.01984 4.17805C6.61927 4.57863 6.30459 5.04517 6.08491 5.56455C5.85705 6.103 5.7418 6.67472 5.7418 7.263C5.7418 7.85128 5.85705 8.423 6.08491 8.96145C6.30457 9.48078 6.61924 9.94803 7.0199 10.348ZM10.1048 4.04733C11.878 4.04733 13.3205 5.48981 13.3205 7.263C13.3205 9.03619 11.878 10.4787 10.1048 10.4787C8.33161 10.4787 6.88913 9.03619 6.88913 7.263C6.88913 5.48981 8.33161 4.04733 10.1048 4.04733Z" fill="black" stroke="black" stroke-width="0.2"/>
<path d="M3.09404 19.5927L3.09401 19.5927C2.9656 19.2882 2.9 18.9643 2.9 18.6317V17.6843C2.9 16.9675 3.04044 16.2719 3.3173 15.6169C3.58468 14.9842 3.96759 14.4163 4.45496 13.929C4.94233 13.4416 5.51025 13.0587 6.14292 12.7913C6.79794 12.5144 7.49419 12.374 8.21033 12.374H11.9997C12.7165 12.374 13.4121 12.5144 14.0671 12.7913C14.6997 13.0587 15.2677 13.4416 15.755 13.929C16.2424 14.4163 16.6253 14.9842 16.8927 15.6169C17.1696 16.2719 17.31 16.9682 17.31 17.6843V18.6317C17.31 18.9648 17.2451 19.2882 17.1159 19.5928L3.09404 19.5927ZM3.09404 19.5927C3.21835 19.8869 3.39657 20.1508 3.6229 20.3771M3.09404 19.5927L3.6229 20.3771M15.8027 20.906L15.8027 20.906C15.4982 21.0344 15.1743 21.1 14.8417 21.1H5.36833C5.03517 21.1 4.71184 21.0351 4.40715 20.9059L15.8027 20.906ZM15.8027 20.906C16.0969 20.7817 16.3608 20.6034 16.5871 20.3771M15.8027 20.906L16.5871 20.3771M3.6229 20.3771C3.84919 20.6034 4.11298 20.7816 4.40714 20.9059L3.6229 20.3771ZM16.5871 20.3771C16.8134 20.1508 16.9916 19.887 17.1159 19.5929L16.5871 20.3771ZM16.1627 18.631C16.1627 19.3595 15.5701 19.952 14.8417 19.952H5.36833C4.63986 19.952 4.04733 19.3595 4.04733 18.631V17.6837C4.04733 15.3885 5.91512 13.5207 8.21033 13.5207H11.9997C14.2949 13.5207 16.1627 15.3885 16.1627 17.6837V18.631Z" fill="black" stroke="black" stroke-width="0.2"/>
<path d="M14.9226 5.02279L14.9223 5.02283C14.6089 5.06691 14.3182 4.8496 14.2741 4.53495L14.9226 5.02279ZM14.9226 5.02279C15.0514 5.00428 15.1832 4.99531 15.3151 4.99531M14.9226 5.02279L15.3151 4.99531M14.5527 10.372C14.2484 10.2837 13.9299 10.4595 13.8424 10.7644C13.7551 11.0688 13.9297 11.3867 14.2347 11.4743M14.5527 10.372L14.2741 4.53491L14.3731 4.52102M14.5527 10.372C14.7991 10.4435 15.0554 10.4793 15.3151 10.4793M14.5527 10.372L15.3151 10.4793M14.2347 11.4743C14.585 11.5757 14.9481 11.6266 15.3158 11.6266C15.8405 11.6266 16.3499 11.524 16.8301 11.3206M14.2347 11.4743L14.2625 11.3783L14.2349 11.4744C14.2348 11.4744 14.2347 11.4743 14.2347 11.4743ZM16.8301 11.3206C17.2931 11.1248 17.7093 10.8446 18.0663 10.487M16.8301 11.3206C16.8301 11.3206 16.8301 11.3206 16.8301 11.3206L16.7911 11.2285L16.8301 11.3206ZM18.0663 10.487C18.4231 10.1301 18.7033 9.71394 18.8997 9.25104L18.8998 9.25086C19.1024 8.77084 19.2058 8.26142 19.2058 7.73665C19.2058 7.21198 19.1031 6.70254 18.8998 6.22238M18.0663 10.487C18.0662 10.487 18.0662 10.487 18.0662 10.4871L17.9955 10.4163L18.0663 10.487ZM18.8998 6.22238C18.704 5.75935 18.4237 5.34311 18.0661 4.98618C17.7092 4.62931 17.2931 4.34916 16.8302 4.15271L16.83 4.15264C16.35 3.95002 15.8406 3.84666 15.3158 3.84666C15.1304 3.84666 14.9434 3.85955 14.7609 3.8861C14.7609 3.88611 14.7609 3.88612 14.7608 3.88612L14.7752 3.98508C14.5162 4.02218 14.3367 4.26199 14.3731 4.52102M18.8998 6.22238L18.8077 6.26133L18.8998 6.22233C18.8998 6.22235 18.8998 6.22236 18.8998 6.22238ZM14.3731 4.52102C14.4095 4.78071 14.6493 4.96024 14.9084 4.9238L14.3731 4.52102ZM15.3151 4.99531C16.8273 4.99531 18.0571 6.22514 18.0571 7.73731M15.3151 4.99531L18.0571 7.73731M18.0571 7.73731C18.0571 9.24949 16.8273 10.4793 15.3151 10.4793M18.0571 7.73731L15.3151 10.4793" fill="black" stroke="black" stroke-width="0.2"/>
<path d="M20.7563 15.0379C20.5366 14.5186 20.2219 14.052 19.8213 13.6514C19.4208 13.2509 18.9542 12.9362 18.4349 12.7165C17.8964 12.4886 17.3247 12.3734 16.7364 12.3734H16.2627C15.9458 12.3734 15.6891 12.6302 15.6891 12.9471C15.6891 13.264 15.9458 13.5207 16.2627 13.5207H16.7364C18.5096 13.5207 19.9521 14.9632 19.9521 16.7364V17.6837C19.9521 17.8895 19.7842 18.0574 19.5784 18.0574H18.6311C18.3142 18.0574 18.0574 18.3142 18.0574 18.6311C18.0574 18.948 18.3142 19.2047 18.6311 19.2047H19.5784C19.9845 19.2047 20.367 19.0465 20.6541 18.7594C20.9412 18.4723 21.0994 18.0898 21.0994 17.6837V16.7364C21.0994 16.1481 20.9841 15.5764 20.7563 15.0379Z" fill="black" stroke="black" stroke-width="0.2"/>
</svg>
