<svg width="24" height="24" viewBox="0 0 24 24" fill="none" xmlns="http://www.w3.org/2000/svg">
<path d="M9.41516 11.0379C11.6312 11.0379 13.4338 9.23475 13.4338 7.01867C13.4338 4.80259 11.6312 3 9.41516 3C7.19908 3 5.39648 4.8026 5.39648 7.01868C5.39648 9.23476 7.19908 11.0379 9.41516 11.0379Z" fill="#F57C00"/>
<path d="M13.3418 10.148L13.4678 10.2508C14.0891 10.7583 14.8614 11.038 15.6419 11.038C17.5457 11.038 19.0945 9.48908 19.0945 7.58532C19.0945 5.68156 17.5457 4.13269 15.6419 4.13269C15.0471 4.13269 14.4866 4.27586 13.9758 4.55888L13.8338 4.63793L13.9062 4.78331C14.2694 5.51076 14.4534 6.26253 14.4534 7.01873C14.4534 8.09333 14.1024 9.13033 13.4391 10.0175L13.3418 10.148Z" fill="#F57C00"/>
<path d="M11.6791 12.9626H7.15076C4.3106 12.9626 2 15.2733 2 18.1134V19.2455C2 20.2129 2.78715 21 3.75451 21H15.0754C16.0427 21 16.8299 20.2129 16.8299 19.2455V18.1134C16.8299 15.2732 14.5193 12.9626 11.6791 12.9626Z" fill="#F57C00"/>
<path d="M17.3393 12.9626H15.0967L15.4825 13.2656C16.9866 14.4485 17.849 16.2152 17.849 18.1134V18.7358H20.7355C21.0788 18.7358 21.358 18.4567 21.358 18.1134V16.9813C21.358 14.7652 19.5554 12.9626 17.3393 12.9626Z" fill="#F57C00"/>
</svg>
