<svg width="24" height="24" viewBox="0 0 24 24" fill="none" xmlns="http://www.w3.org/2000/svg">
<path d="M15.3223 12.7232L14.5971 11.9999L15.446 11.151C16.1575 11.3367 16.9048 11.3362 17.616 11.1496C18.3272 10.963 18.9785 10.5965 19.5071 10.0855C20.9091 8.68343 21.1508 6.83081 20.153 5.13291C20.1082 5.05666 20.0466 4.99165 19.9728 4.94286C19.899 4.89407 19.8151 4.86279 19.7274 4.85141C19.6397 4.84003 19.5506 4.84885 19.4668 4.87719C19.383 4.90553 19.3069 4.95265 19.2441 5.01495L17.697 6.54461C17.556 6.50224 17.4276 6.42544 17.3237 6.32112C17.2197 6.2168 17.1433 6.08825 17.1014 5.94705L18.6369 4.41159C18.7006 4.34749 18.7485 4.26938 18.7767 4.18348C18.8049 4.09758 18.8127 4.00628 18.7993 3.91686C18.786 3.82744 18.752 3.74237 18.6999 3.66845C18.6479 3.59452 18.5792 3.53379 18.4996 3.49109C16.9138 2.62086 15.0187 2.92447 13.6843 4.26462C12.4641 5.48293 12.1082 7.16537 12.7174 8.67376L11.9999 9.40088L11.151 8.55192C11.3362 7.84058 11.3357 7.0936 11.1494 6.38253C10.9632 5.67146 10.5975 5.02011 10.0874 4.49088C8.68343 3.10432 6.83275 2.85486 5.13291 3.85271C5.05666 3.8975 4.99165 3.95913 4.94286 4.03289C4.89407 4.10665 4.86279 4.19058 4.85141 4.27828C4.84003 4.36598 4.84885 4.45512 4.87719 4.53889C4.90553 4.62266 4.95265 4.69884 5.01495 4.76161L6.54461 6.30868C6.50296 6.45054 6.42645 6.57971 6.32208 6.68443C6.2177 6.78914 6.08878 6.86606 5.94705 6.90817L4.39999 5.3611C4.33589 5.29963 4.25855 5.2537 4.1739 5.22684C4.08925 5.19997 3.99957 5.1929 3.91176 5.20617C3.82395 5.21943 3.74036 5.25268 3.66743 5.30335C3.59449 5.35401 3.53416 5.42074 3.49109 5.4984C2.62086 7.08415 2.92447 8.9793 4.26462 10.3175C5.50421 11.5552 7.16537 11.9052 8.67569 11.2844L9.40281 11.9999L8.55192 12.8508C7.84085 12.6637 7.09353 12.6631 6.38215 12.849C5.67077 13.035 5.01937 13.4013 4.49088 13.9125C3.09272 15.3126 2.84712 17.1633 3.84304 18.8573C3.88783 18.9336 3.94946 18.9986 4.02322 19.0474C4.09698 19.0961 4.18092 19.1274 4.26861 19.1388C4.35631 19.1502 4.44545 19.1414 4.52922 19.113C4.61299 19.0847 4.68917 19.0376 4.75195 18.9753L6.29901 17.4456C6.44212 17.4879 6.57241 17.5653 6.6781 17.6706C6.78379 17.776 6.86154 17.906 6.9043 18.049L5.3669 19.5864C5.3026 19.6502 5.25414 19.7282 5.22541 19.8141C5.19667 19.9 5.18846 19.9915 5.20143 20.0812C5.2144 20.1708 5.24819 20.2562 5.3001 20.3305C5.35201 20.4047 5.42058 20.4658 5.50034 20.5088C6.0778 20.8296 6.7272 20.9986 7.38776 21C7.93514 20.9931 8.47573 20.8778 8.97827 20.6607C9.48081 20.4436 9.93534 20.1291 10.3156 19.7353C11.5358 18.517 11.8917 16.8345 11.2825 15.3261L11.9999 14.599L12.8489 15.448C12.6627 16.1593 12.6628 16.9065 12.8491 17.6177C13.0354 18.329 13.4016 18.9803 13.9125 19.509C14.2785 19.8966 14.7185 20.207 15.2064 20.4219C15.6943 20.6368 16.2202 20.7518 16.7533 20.7602C17.4968 20.7508 18.2242 20.5417 18.8592 20.1549C18.9355 20.1101 19.0005 20.0485 19.0493 19.9747C19.0981 19.901 19.1294 19.817 19.1407 19.7293C19.1521 19.6416 19.1433 19.5525 19.115 19.4687C19.0866 19.385 19.0395 19.3088 18.9772 19.246L17.4476 17.6989C17.49 17.5561 17.5674 17.4261 17.6727 17.3208C17.7781 17.2154 17.9081 17.138 18.0509 17.0956L19.5883 18.633C19.652 18.697 19.7298 18.7452 19.8154 18.7739C19.901 18.8025 19.9921 18.8108 20.0815 18.798C20.1709 18.7853 20.2561 18.7518 20.3303 18.7003C20.4044 18.6488 20.4656 18.5808 20.5088 18.5015C21.379 16.9157 21.0735 15.0206 19.7353 13.6824C18.4938 12.4447 16.8345 12.0947 15.3223 12.7232ZM13.371 11.5861L12.4563 12.5008L10.1667 14.7905C10.0773 14.8791 10.0192 14.9943 10.001 15.1189C9.98289 15.2434 10.0057 15.3704 10.0661 15.4808C10.6869 16.6276 10.4684 17.9445 9.48597 18.9153C8.71243 19.6889 7.74552 19.9867 6.80954 19.7817L7.9389 18.6678C7.99612 18.6108 8.04082 18.5425 8.07012 18.4672C8.09943 18.392 8.11269 18.3114 8.10908 18.2308V18.2114C8.08353 17.694 7.86392 17.2052 7.49404 16.8425C7.12416 16.4798 6.63118 16.2698 6.11336 16.2544C6.03466 16.2514 5.95621 16.2649 5.88297 16.2938C5.80974 16.3228 5.74331 16.3666 5.68792 16.4226L4.52762 17.5674C4.21627 16.5638 4.48701 15.5601 5.31662 14.7325C6.24293 13.8023 7.59274 13.7211 8.51905 14.0537C8.62267 14.0911 8.73481 14.0982 8.84234 14.0743C8.94987 14.0503 9.04836 13.9962 9.12627 13.9183L13.8332 9.20943C13.9226 9.12083 13.9807 9.00557 13.9989 8.88104C14.017 8.75651 13.9942 8.62946 13.9338 8.51905C13.313 7.37035 13.5315 6.05535 14.5139 5.08456C15.2875 4.31103 16.2544 4.01322 17.1904 4.21821L16.061 5.33209C16.0041 5.39246 15.96 5.46361 15.9311 5.54133C15.9022 5.61905 15.8891 5.70177 15.8927 5.78461C15.9141 6.30215 16.1309 6.79234 16.4995 7.15627C16.8681 7.5202 17.361 7.73078 17.8788 7.74552C17.9575 7.74859 18.036 7.73521 18.1093 7.70624C18.1825 7.67727 18.2489 7.63335 18.3042 7.57727L19.4645 6.43051C19.7778 7.43804 19.509 8.44363 18.691 9.26938C18.2716 9.66924 17.7491 9.94437 17.1821 10.0639C16.6151 10.1835 16.026 10.1427 15.4808 9.94622C15.3775 9.90919 15.2657 9.90226 15.1586 9.92622C15.0514 9.95018 14.9533 10.0041 14.8756 10.0816L13.371 11.5861Z" fill="#F57C00"/>
</svg>
