<?xml version="1.0" standalone="no"?>
<!DOCTYPE svg PUBLIC "-//W3C//DTD SVG 20010904//EN"
 "http://www.w3.org/TR/2001/REC-SVG-20010904/DTD/svg10.dtd">
<svg version="1.0" xmlns="http://www.w3.org/2000/svg"
 width="50.000000pt" height="50.000000pt" viewBox="0 0 50.000000 50.000000"
 preserveAspectRatio="xMidYMid meet">

<g transform="translate(0.000000,50.000000) scale(0.100000,-0.100000)"
fill="#000000" stroke="none">
<path d="M223 460 c-4 -15 -13 -19 -37 -17 -29 2 -31 0 -29 -29 2 -24 -2 -33
-17 -37 -27 -7 -27 -47 0 -54 15 -4 19 -13 17 -37 -2 -29 0 -31 29 -29 24 2
33 -2 37 -17 7 -27 47 -27 54 0 4 15 13 19 37 17 29 -2 31 0 29 29 -2 24 2 33
17 37 27 7 27 47 0 54 -15 4 -19 13 -17 37 2 29 0 31 -29 29 -24 -2 -33 2 -37
17 -3 12 -14 20 -27 20 -13 0 -24 -8 -27 -20z m40 -21 c5 -18 11 -21 36 -16
29 6 30 5 24 -24 -5 -25 -2 -31 16 -36 24 -6 29 -23 6 -23 -18 0 -39 -36 -25
-45 21 -13 9 -24 -21 -18 -25 5 -31 2 -36 -16 -7 -27 -19 -27 -26 0 -5 18 -11
21 -36 16 -29 -6 -30 -5 -24 24 5 25 2 31 -16 36 -27 7 -27 19 0 26 18 5 21
11 16 36 -6 29 -5 30 24 24 25 -5 31 -2 36 16 3 11 9 21 13 21 4 0 10 -10 13
-21z"/>
<path d="M216 384 c-31 -30 -9 -84 34 -84 24 0 50 26 50 49 0 22 -30 51 -53
51 -8 0 -23 -7 -31 -16z m54 -19 c17 -20 5 -45 -20 -45 -23 0 -35 22 -26 45 7
19 30 19 46 0z"/>
<path d="M67 198 c-26 -11 -47 -25 -47 -30 0 -10 31 -3 72 18 38 20 74 17 106
-6 15 -11 47 -24 72 -28 66 -11 46 -27 -32 -26 -68 0 -88 -8 -45 -20 12 -3 45
-6 72 -6 42 0 60 7 110 40 59 39 85 49 85 31 0 -11 -183 -131 -200 -131 -6 0
-40 14 -76 31 -61 30 -65 30 -89 15 -34 -22 -32 -40 2 -22 25 13 32 12 85 -15
32 -16 66 -29 75 -29 28 0 211 119 219 142 8 26 -5 34 -82 48 -58 11 -66 11
-97 -9 -43 -26 -62 -26 -94 -1 -33 25 -75 25 -136 -2z m273 -13 c-7 -8 -22
-15 -34 -15 -20 1 -20 2 4 15 33 19 46 19 30 0z m36 -20 c-17 -13 -34 -21 -39
-18 -5 3 4 14 20 24 40 27 53 23 19 -6z"/>
</g>
</svg>
