<svg width="24" height="24" viewBox="0 0 24 24" fill="none" xmlns="http://www.w3.org/2000/svg">
<mask id="path-1-outside-1_282_3503" maskUnits="userSpaceOnUse" x="2" y="2" width="20" height="20" fill="black">
<rect fill="white" x="2" y="2" width="20" height="20"/>
<path d="M18.4642 16.8873L20.2187 18.6418C20.2409 18.6638 20.2679 18.6803 20.2976 18.6901C20.3273 18.6998 20.3588 18.7026 20.3897 18.698C20.4207 18.6935 20.4501 18.6819 20.4758 18.6641C20.5015 18.6463 20.5227 18.6228 20.5377 18.5954C21.3655 17.0791 21.0889 15.3347 19.7927 14.0465C18.553 12.8089 16.8752 12.508 15.3852 13.2389L14.1455 12.0033L15.4861 10.6627C16.1856 10.8873 16.9328 10.9182 17.6484 10.7522C18.364 10.5862 19.0213 10.2294 19.5504 9.71978C20.8769 8.39329 21.105 6.64482 20.1561 5.03971C20.1405 5.0131 20.1189 4.99043 20.0932 4.97344C20.0674 4.95645 20.0381 4.94558 20.0075 4.94168C19.9769 4.93778 19.9458 4.94095 19.9166 4.95095C19.8874 4.96094 19.8609 4.97749 19.8391 4.99933L18.0805 6.74174C17.7734 6.71125 17.4865 6.57494 17.2688 6.35616C17.0511 6.13737 16.9162 5.84971 16.8873 5.54244L18.6418 3.78792C18.6638 3.76571 18.6803 3.73869 18.6901 3.70901C18.6998 3.67932 18.7026 3.64777 18.6981 3.61685C18.6936 3.58593 18.682 3.55647 18.6641 3.5308C18.6463 3.50513 18.6228 3.48395 18.5954 3.46892C17.0811 2.64314 15.3367 2.91773 14.0466 4.21595C12.8069 5.45361 12.504 7.13141 13.239 8.62346L12.0033 9.86111L10.6627 8.52049C10.8867 7.82098 10.9173 7.07392 10.7513 6.35843C10.5853 5.64294 10.2289 4.98567 9.71982 4.45622C8.39534 3.13174 6.64486 2.90158 5.03975 3.85051C5.01314 3.86614 4.99047 3.88766 4.97348 3.91341C4.95648 3.93917 4.94562 3.96848 4.94172 3.99909C4.93782 4.0297 4.94099 4.06079 4.95098 4.08999C4.96098 4.11918 4.97753 4.1457 4.99937 4.1675L6.74581 5.93009C6.71504 6.2374 6.578 6.52434 6.35833 6.74143C6.13866 6.95852 5.85013 7.09215 5.54248 7.11929L3.79402 5.36477C3.77177 5.34267 3.74467 5.32605 3.71488 5.31623C3.6851 5.30642 3.65343 5.30368 3.6224 5.30824C3.59119 5.31255 3.56142 5.32411 3.53548 5.34199C3.50953 5.35987 3.48813 5.38358 3.47299 5.41121C2.64116 6.92749 2.91776 8.66989 4.21397 9.96004C5.45364 11.1977 7.13144 11.5005 8.62349 10.7676L9.86317 12.0033L8.52052 13.3459C7.82125 13.1195 7.07362 13.0873 6.35745 13.2526C5.64128 13.418 4.98346 13.7747 4.45423 14.2848C3.11967 15.6092 2.89556 17.3577 3.83641 18.9588C3.85205 18.985 3.87343 19.0074 3.89897 19.0242C3.9245 19.041 3.9535 19.0517 3.9838 19.0557C4.01419 19.0596 4.04508 19.0565 4.07411 19.0468C4.10315 19.037 4.12957 19.0207 4.15138 18.9992L5.916 17.2527C6.22613 17.2808 6.51677 17.4161 6.73788 17.6354C6.95899 17.8546 7.09673 18.1441 7.1274 18.454L5.37288 20.2085C5.35091 20.2308 5.33439 20.2578 5.32463 20.2875C5.31486 20.3172 5.31213 20.3487 5.31663 20.3796C5.32113 20.4105 5.33275 20.44 5.35057 20.4657C5.36839 20.4913 5.39192 20.5125 5.41932 20.5276C5.96595 20.834 6.58149 20.9966 7.20816 21C7.72526 20.9912 8.23543 20.8796 8.70894 20.6716C9.18245 20.4636 9.60982 20.1634 9.96614 19.7886C11.2078 18.5489 11.5087 16.8731 10.7737 15.3811L12.0033 14.1455L13.3439 15.4861C13.1187 16.1856 13.0872 16.9331 13.2529 17.6491C13.4185 18.3652 13.7752 19.0229 14.2848 19.5524C14.6307 19.9198 15.0467 20.2142 15.5082 20.4181C15.9698 20.622 16.4676 20.7313 16.9721 20.7395C17.6742 20.7306 18.361 20.5333 18.9608 20.1682C18.9876 20.1527 19.0104 20.1313 19.0276 20.1057C19.0448 20.08 19.0559 20.0507 19.06 20.0201C19.0641 19.9895 19.0611 19.9583 19.0512 19.929C19.0414 19.8998 19.025 19.8731 19.0032 19.8512L17.2527 18.0886C17.283 17.7786 17.4207 17.4889 17.6419 17.2695C17.863 17.0502 18.1539 16.915 18.4642 16.8873ZM8.66185 10.3154C8.62803 10.3152 8.59471 10.3235 8.56494 10.3396C7.20413 11.0745 5.64545 10.8201 4.49865 9.67536C3.4104 8.5851 3.11967 7.1415 3.70518 5.84731L5.32039 7.46252C5.3402 7.48223 5.36389 7.49761 5.38996 7.50769C5.41602 7.51777 5.4439 7.52233 5.47181 7.52108H5.492C5.92933 7.50499 6.34433 7.32379 6.6534 7.01397C6.96247 6.70415 7.14267 6.28872 7.15769 5.85135C7.15838 5.82411 7.15355 5.797 7.14349 5.77167C7.13343 5.74634 7.11834 5.72331 7.09914 5.70396L5.48393 4.06655C6.84474 3.37402 8.31055 3.61631 9.43312 4.73484C9.90331 5.22608 10.2278 5.83827 10.3704 6.50315C10.513 7.16802 10.4681 7.85944 10.2407 8.5003C10.2295 8.53501 10.2279 8.57211 10.2361 8.60766C10.2442 8.64321 10.2619 8.67588 10.2872 8.7022L11.7166 10.1317L10.1458 11.7024L8.80318 10.3598C8.7634 10.3276 8.71289 10.3118 8.66185 10.3154ZM10.3397 15.4356C11.0766 16.7964 10.8202 18.3551 9.67338 19.4999C8.58513 20.5942 7.14154 20.8869 5.84937 20.2994L7.46458 18.6842C7.48429 18.6644 7.49967 18.6407 7.50975 18.6146C7.51982 18.5886 7.52438 18.5607 7.52313 18.5328V18.5126C7.50317 18.0754 7.31958 17.6616 7.00879 17.3534C6.69799 17.0453 6.28271 16.8652 5.84533 16.8489C5.81808 16.8482 5.79098 16.853 5.76565 16.8631C5.74032 16.8732 5.71729 16.8883 5.69794 16.9075L4.05851 18.5227C3.35387 17.1417 3.59615 15.7122 4.73488 14.5694C5.82918 13.4731 7.4141 13.3762 8.50033 13.7618C8.53504 13.7731 8.57214 13.7747 8.60769 13.7665C8.64324 13.7583 8.67591 13.7407 8.70223 13.7154L13.6327 8.80315C13.6619 8.77285 13.6809 8.73418 13.687 8.69255C13.6932 8.65093 13.6862 8.60841 13.667 8.57096C12.9321 7.20813 13.1865 5.65147 14.3333 4.50669C15.4215 3.41239 16.8651 3.11963 18.1573 3.70716L16.5421 5.32237C16.5019 5.36953 16.481 5.43009 16.4835 5.49197C16.5001 5.92914 16.6814 6.34386 16.9911 6.65284C17.3009 6.96181 17.716 7.14216 18.1532 7.15765C18.1805 7.15835 18.2076 7.15352 18.2329 7.14345C18.2582 7.13339 18.2813 7.1183 18.3006 7.0991L19.9401 5.48389C20.6326 6.8548 20.3903 8.31051 19.2637 9.44519C18.1694 10.5415 16.5845 10.6404 15.5002 10.2528C15.4655 10.2416 15.4284 10.24 15.3929 10.2481C15.3573 10.2563 15.3247 10.274 15.2983 10.2992L13.7276 11.87L12.6373 12.9623L10.374 15.2034C10.3448 15.2337 10.3258 15.2724 10.3196 15.314C10.3135 15.3556 10.3205 15.3982 10.3397 15.4356ZM16.8489 18.1613C16.8483 18.1885 16.8531 18.2156 16.8631 18.241C16.8732 18.2663 16.8883 18.2893 16.9075 18.3087L18.5227 19.9481C17.1437 20.6507 15.7143 20.4104 14.5715 19.2717C13.4752 18.1774 13.3762 16.5905 13.7639 15.5063C13.7751 15.4716 13.7767 15.4345 13.7685 15.3989C13.7604 15.3634 13.7427 15.3307 13.7175 15.3044L12.288 13.8749L12.9038 13.2571L13.8568 12.3021L15.1994 13.6447C15.2302 13.6753 15.27 13.6951 15.3129 13.7013C15.3558 13.7075 15.3995 13.6997 15.4377 13.6791C16.8005 12.9462 18.3571 13.2006 19.5039 14.3453C20.5922 15.4336 20.885 16.8792 20.2974 18.1815L18.6822 16.5662C18.663 16.5458 18.6394 16.5299 18.6132 16.5198C18.5869 16.5096 18.5588 16.5055 18.5308 16.5077H18.5045C18.0726 16.5287 17.6639 16.7096 17.3579 17.0152C17.0519 17.3208 16.8705 17.7293 16.8489 18.1613Z"/>
</mask>
<path d="M18.4642 16.8873L20.2187 18.6418C20.2409 18.6638 20.2679 18.6803 20.2976 18.6901C20.3273 18.6998 20.3588 18.7026 20.3897 18.698C20.4207 18.6935 20.4501 18.6819 20.4758 18.6641C20.5015 18.6463 20.5227 18.6228 20.5377 18.5954C21.3655 17.0791 21.0889 15.3347 19.7927 14.0465C18.553 12.8089 16.8752 12.508 15.3852 13.2389L14.1455 12.0033L15.4861 10.6627C16.1856 10.8873 16.9328 10.9182 17.6484 10.7522C18.364 10.5862 19.0213 10.2294 19.5504 9.71978C20.8769 8.39329 21.105 6.64482 20.1561 5.03971C20.1405 5.0131 20.1189 4.99043 20.0932 4.97344C20.0674 4.95645 20.0381 4.94558 20.0075 4.94168C19.9769 4.93778 19.9458 4.94095 19.9166 4.95095C19.8874 4.96094 19.8609 4.97749 19.8391 4.99933L18.0805 6.74174C17.7734 6.71125 17.4865 6.57494 17.2688 6.35616C17.0511 6.13737 16.9162 5.84971 16.8873 5.54244L18.6418 3.78792C18.6638 3.76571 18.6803 3.73869 18.6901 3.70901C18.6998 3.67932 18.7026 3.64777 18.6981 3.61685C18.6936 3.58593 18.682 3.55647 18.6641 3.5308C18.6463 3.50513 18.6228 3.48395 18.5954 3.46892C17.0811 2.64314 15.3367 2.91773 14.0466 4.21595C12.8069 5.45361 12.504 7.13141 13.239 8.62346L12.0033 9.86111L10.6627 8.52049C10.8867 7.82098 10.9173 7.07392 10.7513 6.35843C10.5853 5.64294 10.2289 4.98567 9.71982 4.45622C8.39534 3.13174 6.64486 2.90158 5.03975 3.85051C5.01314 3.86614 4.99047 3.88766 4.97348 3.91341C4.95648 3.93917 4.94562 3.96848 4.94172 3.99909C4.93782 4.0297 4.94099 4.06079 4.95098 4.08999C4.96098 4.11918 4.97753 4.1457 4.99937 4.1675L6.74581 5.93009C6.71504 6.2374 6.578 6.52434 6.35833 6.74143C6.13866 6.95852 5.85013 7.09215 5.54248 7.11929L3.79402 5.36477C3.77177 5.34267 3.74467 5.32605 3.71488 5.31623C3.6851 5.30642 3.65343 5.30368 3.6224 5.30824C3.59119 5.31255 3.56142 5.32411 3.53548 5.34199C3.50953 5.35987 3.48813 5.38358 3.47299 5.41121C2.64116 6.92749 2.91776 8.66989 4.21397 9.96004C5.45364 11.1977 7.13144 11.5005 8.62349 10.7676L9.86317 12.0033L8.52052 13.3459C7.82125 13.1195 7.07362 13.0873 6.35745 13.2526C5.64128 13.418 4.98346 13.7747 4.45423 14.2848C3.11967 15.6092 2.89556 17.3577 3.83641 18.9588C3.85205 18.985 3.87343 19.0074 3.89897 19.0242C3.9245 19.041 3.9535 19.0517 3.9838 19.0557C4.01419 19.0596 4.04508 19.0565 4.07411 19.0468C4.10315 19.037 4.12957 19.0207 4.15138 18.9992L5.916 17.2527C6.22613 17.2808 6.51677 17.4161 6.73788 17.6354C6.95899 17.8546 7.09673 18.1441 7.1274 18.454L5.37288 20.2085C5.35091 20.2308 5.33439 20.2578 5.32463 20.2875C5.31486 20.3172 5.31213 20.3487 5.31663 20.3796C5.32113 20.4105 5.33275 20.44 5.35057 20.4657C5.36839 20.4913 5.39192 20.5125 5.41932 20.5276C5.96595 20.834 6.58149 20.9966 7.20816 21C7.72526 20.9912 8.23543 20.8796 8.70894 20.6716C9.18245 20.4636 9.60982 20.1634 9.96614 19.7886C11.2078 18.5489 11.5087 16.8731 10.7737 15.3811L12.0033 14.1455L13.3439 15.4861C13.1187 16.1856 13.0872 16.9331 13.2529 17.6491C13.4185 18.3652 13.7752 19.0229 14.2848 19.5524C14.6307 19.9198 15.0467 20.2142 15.5082 20.4181C15.9698 20.622 16.4676 20.7313 16.9721 20.7395C17.6742 20.7306 18.361 20.5333 18.9608 20.1682C18.9876 20.1527 19.0104 20.1313 19.0276 20.1057C19.0448 20.08 19.0559 20.0507 19.06 20.0201C19.0641 19.9895 19.0611 19.9583 19.0512 19.929C19.0414 19.8998 19.025 19.8731 19.0032 19.8512L17.2527 18.0886C17.283 17.7786 17.4207 17.4889 17.6419 17.2695C17.863 17.0502 18.1539 16.915 18.4642 16.8873ZM8.66185 10.3154C8.62803 10.3152 8.59471 10.3235 8.56494 10.3396C7.20413 11.0745 5.64545 10.8201 4.49865 9.67536C3.4104 8.5851 3.11967 7.1415 3.70518 5.84731L5.32039 7.46252C5.3402 7.48223 5.36389 7.49761 5.38996 7.50769C5.41602 7.51777 5.4439 7.52233 5.47181 7.52108H5.492C5.92933 7.50499 6.34433 7.32379 6.6534 7.01397C6.96247 6.70415 7.14267 6.28872 7.15769 5.85135C7.15838 5.82411 7.15355 5.797 7.14349 5.77167C7.13343 5.74634 7.11834 5.72331 7.09914 5.70396L5.48393 4.06655C6.84474 3.37402 8.31055 3.61631 9.43312 4.73484C9.90331 5.22608 10.2278 5.83827 10.3704 6.50315C10.513 7.16802 10.4681 7.85944 10.2407 8.5003C10.2295 8.53501 10.2279 8.57211 10.2361 8.60766C10.2442 8.64321 10.2619 8.67588 10.2872 8.7022L11.7166 10.1317L10.1458 11.7024L8.80318 10.3598C8.7634 10.3276 8.71289 10.3118 8.66185 10.3154ZM10.3397 15.4356C11.0766 16.7964 10.8202 18.3551 9.67338 19.4999C8.58513 20.5942 7.14154 20.8869 5.84937 20.2994L7.46458 18.6842C7.48429 18.6644 7.49967 18.6407 7.50975 18.6146C7.51982 18.5886 7.52438 18.5607 7.52313 18.5328V18.5126C7.50317 18.0754 7.31958 17.6616 7.00879 17.3534C6.69799 17.0453 6.28271 16.8652 5.84533 16.8489C5.81808 16.8482 5.79098 16.853 5.76565 16.8631C5.74032 16.8732 5.71729 16.8883 5.69794 16.9075L4.05851 18.5227C3.35387 17.1417 3.59615 15.7122 4.73488 14.5694C5.82918 13.4731 7.4141 13.3762 8.50033 13.7618C8.53504 13.7731 8.57214 13.7747 8.60769 13.7665C8.64324 13.7583 8.67591 13.7407 8.70223 13.7154L13.6327 8.80315C13.6619 8.77285 13.6809 8.73418 13.687 8.69255C13.6932 8.65093 13.6862 8.60841 13.667 8.57096C12.9321 7.20813 13.1865 5.65147 14.3333 4.50669C15.4215 3.41239 16.8651 3.11963 18.1573 3.70716L16.5421 5.32237C16.5019 5.36953 16.481 5.43009 16.4835 5.49197C16.5001 5.92914 16.6814 6.34386 16.9911 6.65284C17.3009 6.96181 17.716 7.14216 18.1532 7.15765C18.1805 7.15835 18.2076 7.15352 18.2329 7.14345C18.2582 7.13339 18.2813 7.1183 18.3006 7.0991L19.9401 5.48389C20.6326 6.8548 20.3903 8.31051 19.2637 9.44519C18.1694 10.5415 16.5845 10.6404 15.5002 10.2528C15.4655 10.2416 15.4284 10.24 15.3929 10.2481C15.3573 10.2563 15.3247 10.274 15.2983 10.2992L13.7276 11.87L12.6373 12.9623L10.374 15.2034C10.3448 15.2337 10.3258 15.2724 10.3196 15.314C10.3135 15.3556 10.3205 15.3982 10.3397 15.4356ZM16.8489 18.1613C16.8483 18.1885 16.8531 18.2156 16.8631 18.241C16.8732 18.2663 16.8883 18.2893 16.9075 18.3087L18.5227 19.9481C17.1437 20.6507 15.7143 20.4104 14.5715 19.2717C13.4752 18.1774 13.3762 16.5905 13.7639 15.5063C13.7751 15.4716 13.7767 15.4345 13.7685 15.3989C13.7604 15.3634 13.7427 15.3307 13.7175 15.3044L12.288 13.8749L12.9038 13.2571L13.8568 12.3021L15.1994 13.6447C15.2302 13.6753 15.27 13.6951 15.3129 13.7013C15.3558 13.7075 15.3995 13.6997 15.4377 13.6791C16.8005 12.9462 18.3571 13.2006 19.5039 14.3453C20.5922 15.4336 20.885 16.8792 20.2974 18.1815L18.6822 16.5662C18.663 16.5458 18.6394 16.5299 18.6132 16.5198C18.5869 16.5096 18.5588 16.5055 18.5308 16.5077H18.5045C18.0726 16.5287 17.6639 16.7096 17.3579 17.0152C17.0519 17.3208 16.8705 17.7293 16.8489 18.1613Z" fill="black"/>
<path d="M18.4642 16.8873L20.2187 18.6418C20.2409 18.6638 20.2679 18.6803 20.2976 18.6901C20.3273 18.6998 20.3588 18.7026 20.3897 18.698C20.4207 18.6935 20.4501 18.6819 20.4758 18.6641C20.5015 18.6463 20.5227 18.6228 20.5377 18.5954C21.3655 17.0791 21.0889 15.3347 19.7927 14.0465C18.553 12.8089 16.8752 12.508 15.3852 13.2389L14.1455 12.0033L15.4861 10.6627C16.1856 10.8873 16.9328 10.9182 17.6484 10.7522C18.364 10.5862 19.0213 10.2294 19.5504 9.71978C20.8769 8.39329 21.105 6.64482 20.1561 5.03971C20.1405 5.0131 20.1189 4.99043 20.0932 4.97344C20.0674 4.95645 20.0381 4.94558 20.0075 4.94168C19.9769 4.93778 19.9458 4.94095 19.9166 4.95095C19.8874 4.96094 19.8609 4.97749 19.8391 4.99933L18.0805 6.74174C17.7734 6.71125 17.4865 6.57494 17.2688 6.35616C17.0511 6.13737 16.9162 5.84971 16.8873 5.54244L18.6418 3.78792C18.6638 3.76571 18.6803 3.73869 18.6901 3.70901C18.6998 3.67932 18.7026 3.64777 18.6981 3.61685C18.6936 3.58593 18.682 3.55647 18.6641 3.5308C18.6463 3.50513 18.6228 3.48395 18.5954 3.46892C17.0811 2.64314 15.3367 2.91773 14.0466 4.21595C12.8069 5.45361 12.504 7.13141 13.239 8.62346L12.0033 9.86111L10.6627 8.52049C10.8867 7.82098 10.9173 7.07392 10.7513 6.35843C10.5853 5.64294 10.2289 4.98567 9.71982 4.45622C8.39534 3.13174 6.64486 2.90158 5.03975 3.85051C5.01314 3.86614 4.99047 3.88766 4.97348 3.91341C4.95648 3.93917 4.94562 3.96848 4.94172 3.99909C4.93782 4.0297 4.94099 4.06079 4.95098 4.08999C4.96098 4.11918 4.97753 4.1457 4.99937 4.1675L6.74581 5.93009C6.71504 6.2374 6.578 6.52434 6.35833 6.74143C6.13866 6.95852 5.85013 7.09215 5.54248 7.11929L3.79402 5.36477C3.77177 5.34267 3.74467 5.32605 3.71488 5.31623C3.6851 5.30642 3.65343 5.30368 3.6224 5.30824C3.59119 5.31255 3.56142 5.32411 3.53548 5.34199C3.50953 5.35987 3.48813 5.38358 3.47299 5.41121C2.64116 6.92749 2.91776 8.66989 4.21397 9.96004C5.45364 11.1977 7.13144 11.5005 8.62349 10.7676L9.86317 12.0033L8.52052 13.3459C7.82125 13.1195 7.07362 13.0873 6.35745 13.2526C5.64128 13.418 4.98346 13.7747 4.45423 14.2848C3.11967 15.6092 2.89556 17.3577 3.83641 18.9588C3.85205 18.985 3.87343 19.0074 3.89897 19.0242C3.9245 19.041 3.9535 19.0517 3.9838 19.0557C4.01419 19.0596 4.04508 19.0565 4.07411 19.0468C4.10315 19.037 4.12957 19.0207 4.15138 18.9992L5.916 17.2527C6.22613 17.2808 6.51677 17.4161 6.73788 17.6354C6.95899 17.8546 7.09673 18.1441 7.1274 18.454L5.37288 20.2085C5.35091 20.2308 5.33439 20.2578 5.32463 20.2875C5.31486 20.3172 5.31213 20.3487 5.31663 20.3796C5.32113 20.4105 5.33275 20.44 5.35057 20.4657C5.36839 20.4913 5.39192 20.5125 5.41932 20.5276C5.96595 20.834 6.58149 20.9966 7.20816 21C7.72526 20.9912 8.23543 20.8796 8.70894 20.6716C9.18245 20.4636 9.60982 20.1634 9.96614 19.7886C11.2078 18.5489 11.5087 16.8731 10.7737 15.3811L12.0033 14.1455L13.3439 15.4861C13.1187 16.1856 13.0872 16.9331 13.2529 17.6491C13.4185 18.3652 13.7752 19.0229 14.2848 19.5524C14.6307 19.9198 15.0467 20.2142 15.5082 20.4181C15.9698 20.622 16.4676 20.7313 16.9721 20.7395C17.6742 20.7306 18.361 20.5333 18.9608 20.1682C18.9876 20.1527 19.0104 20.1313 19.0276 20.1057C19.0448 20.08 19.0559 20.0507 19.06 20.0201C19.0641 19.9895 19.0611 19.9583 19.0512 19.929C19.0414 19.8998 19.025 19.8731 19.0032 19.8512L17.2527 18.0886C17.283 17.7786 17.4207 17.4889 17.6419 17.2695C17.863 17.0502 18.1539 16.915 18.4642 16.8873ZM8.66185 10.3154C8.62803 10.3152 8.59471 10.3235 8.56494 10.3396C7.20413 11.0745 5.64545 10.8201 4.49865 9.67536C3.4104 8.5851 3.11967 7.1415 3.70518 5.84731L5.32039 7.46252C5.3402 7.48223 5.36389 7.49761 5.38996 7.50769C5.41602 7.51777 5.4439 7.52233 5.47181 7.52108H5.492C5.92933 7.50499 6.34433 7.32379 6.6534 7.01397C6.96247 6.70415 7.14267 6.28872 7.15769 5.85135C7.15838 5.82411 7.15355 5.797 7.14349 5.77167C7.13343 5.74634 7.11834 5.72331 7.09914 5.70396L5.48393 4.06655C6.84474 3.37402 8.31055 3.61631 9.43312 4.73484C9.90331 5.22608 10.2278 5.83827 10.3704 6.50315C10.513 7.16802 10.4681 7.85944 10.2407 8.5003C10.2295 8.53501 10.2279 8.57211 10.2361 8.60766C10.2442 8.64321 10.2619 8.67588 10.2872 8.7022L11.7166 10.1317L10.1458 11.7024L8.80318 10.3598C8.7634 10.3276 8.71289 10.3118 8.66185 10.3154ZM10.3397 15.4356C11.0766 16.7964 10.8202 18.3551 9.67338 19.4999C8.58513 20.5942 7.14154 20.8869 5.84937 20.2994L7.46458 18.6842C7.48429 18.6644 7.49967 18.6407 7.50975 18.6146C7.51982 18.5886 7.52438 18.5607 7.52313 18.5328V18.5126C7.50317 18.0754 7.31958 17.6616 7.00879 17.3534C6.69799 17.0453 6.28271 16.8652 5.84533 16.8489C5.81808 16.8482 5.79098 16.853 5.76565 16.8631C5.74032 16.8732 5.71729 16.8883 5.69794 16.9075L4.05851 18.5227C3.35387 17.1417 3.59615 15.7122 4.73488 14.5694C5.82918 13.4731 7.4141 13.3762 8.50033 13.7618C8.53504 13.7731 8.57214 13.7747 8.60769 13.7665C8.64324 13.7583 8.67591 13.7407 8.70223 13.7154L13.6327 8.80315C13.6619 8.77285 13.6809 8.73418 13.687 8.69255C13.6932 8.65093 13.6862 8.60841 13.667 8.57096C12.9321 7.20813 13.1865 5.65147 14.3333 4.50669C15.4215 3.41239 16.8651 3.11963 18.1573 3.70716L16.5421 5.32237C16.5019 5.36953 16.481 5.43009 16.4835 5.49197C16.5001 5.92914 16.6814 6.34386 16.9911 6.65284C17.3009 6.96181 17.716 7.14216 18.1532 7.15765C18.1805 7.15835 18.2076 7.15352 18.2329 7.14345C18.2582 7.13339 18.2813 7.1183 18.3006 7.0991L19.9401 5.48389C20.6326 6.8548 20.3903 8.31051 19.2637 9.44519C18.1694 10.5415 16.5845 10.6404 15.5002 10.2528C15.4655 10.2416 15.4284 10.24 15.3929 10.2481C15.3573 10.2563 15.3247 10.274 15.2983 10.2992L13.7276 11.87L12.6373 12.9623L10.374 15.2034C10.3448 15.2337 10.3258 15.2724 10.3196 15.314C10.3135 15.3556 10.3205 15.3982 10.3397 15.4356ZM16.8489 18.1613C16.8483 18.1885 16.8531 18.2156 16.8631 18.241C16.8732 18.2663 16.8883 18.2893 16.9075 18.3087L18.5227 19.9481C17.1437 20.6507 15.7143 20.4104 14.5715 19.2717C13.4752 18.1774 13.3762 16.5905 13.7639 15.5063C13.7751 15.4716 13.7767 15.4345 13.7685 15.3989C13.7604 15.3634 13.7427 15.3307 13.7175 15.3044L12.288 13.8749L12.9038 13.2571L13.8568 12.3021L15.1994 13.6447C15.2302 13.6753 15.27 13.6951 15.3129 13.7013C15.3558 13.7075 15.3995 13.6997 15.4377 13.6791C16.8005 12.9462 18.3571 13.2006 19.5039 14.3453C20.5922 15.4336 20.885 16.8792 20.2974 18.1815L18.6822 16.5662C18.663 16.5458 18.6394 16.5299 18.6132 16.5198C18.5869 16.5096 18.5588 16.5055 18.5308 16.5077H18.5045C18.0726 16.5287 17.6639 16.7096 17.3579 17.0152C17.0519 17.3208 16.8705 17.7293 16.8489 18.1613Z" stroke="black" stroke-width="0.8" mask="url(#path-1-outside-1_282_3503)"/>
</svg>
